<svg xmlns="http://www.w3.org/2000/svg" viewBox="0 0 100 100">
  <defs>
    <linearGradient id="cloudGrad" x1="0%" y1="0%" x2="0%" y2="100%">
      <stop offset="0%" style="stop-color:#4a90e2;stop-opacity:1" />
      <stop offset="100%" style="stop-color:#357abd;stop-opacity:1" />
    </linearGradient>
  </defs>
  
  <!-- White background -->
  <rect width="100" height="100" fill="#ffffff" rx="20"/>
  
  <!-- Cloud shape - larger to contain all text -->
  <path d="M 18 58 
           Q 12 52, 18 46
           Q 18 32, 28 32
           Q 32 20, 42 24
           Q 48 20, 52 24
           Q 58 20, 68 32
           Q 82 32, 82 46
           Q 88 46, 88 58
           Q 82 64, 76 64
           Q 70 70, 64 64
           Q 58 70, 52 64
           Q 46 70, 40 64
           Q 34 70, 28 64
           Q 22 70, 18 64
           Q 18 64, 18 58 Z" 
        fill="url(#cloudGrad)"/>
  
  <!-- Adirbd text - centered within cloud -->
  <text x="50" y="60" font-family="Arial, Helvetica, sans-serif" font-size="20" font-weight="bold" fill="#1a1a1a" text-anchor="middle" letter-spacing="-0.5">Adirbd</text>
</svg>
