<svg xmlns="http://www.w3.org/2000/svg" viewBox="0 0 64 64" role="img" aria-label="Option monogram favicon">
  <defs>
    <linearGradient id="g" x1="0" y1="0" x2="1" y2="1">
      <stop offset="0%" stop-color="#0f172a"/>
      <stop offset="100%" stop-color="#111827"/>
    </linearGradient>
  </defs>
  <rect width="64" height="64" rx="14" fill="url(#g)"/>
  <path d="M16 50 V14 H30.5 C36.1 14 40 17.6 40 22.8 C40 26.6 37.8 29.2 34.3 30.2 C38.8 31.1 41.5 34 41.5 38.8 C41.5 45.5 36.7 50 29.6 50 Z M22 20 V27.8 H29 C31.4 27.8 33 26.3 33 23.9 C33 21.4 31.4 20 29 20 Z M22 33.2 V44 H29.1 C32.1 44 34 41.9 34 38.8 C34 35.5 32.1 33.2 29.1 33.2 Z" fill="#ffffff"/>
  <path d="M42 14 H48 V32.5 C48 39.5 45.8 45.5 40.7 50 L36 46.5 C40 43 42 38.8 42 32.5 Z" fill="#2dd4bf"/>
</svg>
