<svg xmlns="http://www.w3.org/2000/svg" viewBox="0 0 100 100">
  <defs>
    <linearGradient id="cloudGrad" x1="0%" y1="0%" x2="100%" y2="100%">
      <stop offset="0%" style="stop-color:#2a2a2a;stop-opacity:1" />
      <stop offset="100%" style="stop-color:#000000;stop-opacity:1" />
    </linearGradient>
  </defs>
  
  <!-- Background -->
  <rect width="100" height="100" fill="url(#cloudGrad)" rx="20"/>
  
  <!-- Cloud shape - larger and more prominent -->
  <path d="M 15 60 
           Q 10 55, 15 50
           Q 15 35, 30 35
           Q 35 20, 50 25
           Q 65 20, 75 35
           Q 90 35, 90 50
           Q 95 50, 95 60
           Q 90 70, 85 70
           Q 80 75, 75 70
           Q 70 75, 65 70
           Q 60 75, 55 70
           Q 50 75, 45 70
           Q 40 75, 35 70
           Q 30 75, 25 70
           Q 20 70, 15 60 Z" 
        fill="#e5e5e6" opacity="0.25"/>
  
  <!-- Adirbd text -->
  <text x="50" y="58" font-family="Arial, Helvetica, sans-serif" font-size="24" font-weight="bold" fill="#e5e5e6" text-anchor="middle" letter-spacing="-0.5">Adirbd</text>
</svg>
